<svg width="189" height="32" viewBox="0 0 189 32" fill="none" xmlns="http://www.w3.org/2000/svg">
<rect width="189" height="32" rx="4" fill="#F0F5FF"/>
<path d="M40.08 11.66H36.984V20H38.004V16.52H40.08C41.736 16.52 42.792 15.56 42.792 14.084C42.792 12.608 41.748 11.66 40.08 11.66ZM40.032 15.608H38.004V12.56H40.032C41.148 12.56 41.748 13.184 41.748 14.084C41.748 14.996 41.148 15.608 40.032 15.608ZM44.3658 17.216H49.6218C49.6338 17.096 49.6458 16.88 49.6458 16.7C49.6458 15.032 48.4338 13.532 46.5258 13.532C44.7378 13.532 43.3338 15.008 43.3338 16.844C43.3338 18.728 44.6538 20.144 46.5978 20.144C48.0978 20.144 48.9738 19.496 49.4418 18.596L48.5538 18.056C48.2418 18.788 47.6658 19.184 46.6338 19.184C45.4698 19.184 44.5458 18.392 44.3658 17.216ZM44.3778 16.328C44.5698 15.128 45.4938 14.42 46.5618 14.42C47.6178 14.42 48.4458 15.14 48.6018 16.328H44.3778ZM52.9073 20.132C54.4073 20.132 55.4033 19.436 55.4033 18.236C55.4033 15.92 51.7433 16.664 51.7433 15.248C51.7433 14.732 52.1633 14.408 52.8953 14.408C53.5313 14.408 53.9873 14.672 54.1913 15.236L55.1633 14.852C54.8873 14.012 54.0593 13.544 52.9073 13.544C51.5153 13.544 50.6153 14.216 50.6153 15.308C50.6153 17.48 54.2513 16.796 54.2513 18.32C54.2513 18.908 53.7353 19.244 52.9433 19.244C52.0673 19.244 51.4793 18.86 51.2753 18.212L50.3033 18.596C50.6393 19.604 51.5993 20.132 52.9073 20.132ZM61.6981 13.676V14.852C61.1941 14.036 60.3541 13.544 59.2981 13.544C57.4981 13.544 56.2141 14.96 56.2141 16.844C56.2141 18.728 57.5341 20.132 59.3221 20.132C60.3181 20.132 61.1221 19.688 61.6261 18.956V22.148H62.6461V13.676H61.6981ZM59.4421 19.232C58.1701 19.232 57.2221 18.212 57.2221 16.844C57.2221 15.464 58.1701 14.444 59.4421 14.444C60.7501 14.444 61.6621 15.44 61.6621 16.844C61.6621 18.248 60.7621 19.232 59.4421 19.232ZM68.8559 13.676V17.648C68.8439 18.452 68.1239 19.22 67.0559 19.22C65.9759 19.232 65.2919 18.524 65.2919 17.456V13.676H64.2719V17.576C64.2719 19.076 65.1719 20.132 66.7919 20.132C67.7279 20.132 68.4839 19.688 68.9039 19.1V20H69.8759V13.676H68.8559ZM72.0669 12.512C72.5229 12.512 72.8709 12.188 72.8709 11.732C72.8709 11.264 72.5229 10.928 72.0669 10.928C71.6109 10.928 71.2629 11.264 71.2629 11.732C71.2629 12.188 71.6109 12.512 72.0669 12.512ZM71.5629 20H72.5829V13.676H71.5629V20ZM76.298 20.132C77.798 20.132 78.794 19.436 78.794 18.236C78.794 15.92 75.134 16.664 75.134 15.248C75.134 14.732 75.554 14.408 76.286 14.408C76.922 14.408 77.378 14.672 77.582 15.236L78.554 14.852C78.278 14.012 77.45 13.544 76.298 13.544C74.906 13.544 74.006 14.216 74.006 15.308C74.006 17.48 77.642 16.796 77.642 18.32C77.642 18.908 77.126 19.244 76.334 19.244C75.458 19.244 74.87 18.86 74.666 18.212L73.694 18.596C74.03 19.604 74.99 20.132 76.298 20.132ZM85.0887 13.676V14.9C84.6087 14.084 83.7807 13.604 82.7127 13.604C80.9247 13.604 79.6047 14.96 79.6047 16.832C79.6047 18.728 80.9127 20.132 82.7127 20.132C83.7807 20.132 84.6087 19.628 85.0887 18.788V20H86.0367V13.676H85.0887ZM82.8327 19.232C81.5607 19.232 80.6127 18.212 80.6127 16.832C80.6127 15.476 81.5607 14.444 82.8327 14.444C84.1527 14.444 85.0527 15.428 85.0527 16.832C85.0527 18.248 84.1407 19.232 82.8327 19.232ZM88.7065 14.6V13.676H87.7465V20H88.7665V16.184C88.7665 15.284 89.5705 14.504 90.7225 14.492V13.544C89.8345 13.544 89.1145 14.012 88.7065 14.6Z" fill="#7C7786"/>
<path d="M16.2322 21.8333C20.1727 21.8333 23.3671 18.8486 23.3671 15.1667C23.3671 11.4848 20.1727 8.5 16.2322 8.5C12.2916 8.5 9.09717 11.4848 9.09717 15.1667C9.09717 18.8486 12.2916 21.8333 16.2322 21.8333Z" stroke="#5E49FF" stroke-width="2" stroke-linecap="round" stroke-linejoin="round"/>
<path d="M25.1509 23.5L21.2712 19.875" stroke="#5E49FF" stroke-width="2" stroke-linecap="round" stroke-linejoin="round"/>
</svg>
